<svg version="1.2" xmlns="http://www.w3.org/2000/svg" viewBox="0 0 400 400" width="400" height="400">
	<style>
		.s0 { fill: #ffffff } 
	</style>
	<path id="CHAR" fill-rule="evenodd" class="s0" d="m61.97 121.12c0-20.91 8.31-40.98 23.1-55.77 14.79-14.79 34.85-23.1 55.77-23.1 20.92 0 40.98 8.31 55.78 23.1 14.79 14.79 23.1 34.86 23.1 55.77 0 20.92-8.31 40.99-23.1 55.78-14.8 14.79-34.86 23.1-55.78 23.1-20.92 0-40.98-8.31-55.77-23.1-14.79-14.79-23.1-34.86-23.1-55.78zm-59.16 218.33c0-60.7 49.18-109.87 109.87-109.87h56.32c60.7 0 109.88 49.17 109.88 109.87 0 10.1-8.2 18.3-18.31 18.3h-239.46c-10.1 0-18.3-8.2-18.3-18.3zm375.46 18.3h-84.98c3.33-5.79 5.3-12.51 5.3-19.72v-4.93c0-37.4-16.7-70.99-43.01-93.54 1.48-0.06 2.9-0.12 4.38-0.12h37.83c54.91 0 99.4 44.49 99.4 99.39 0 10.48-8.51 18.92-18.92 18.92zm-109.25-157.75c-19.11 0-36.36-7.76-48.87-20.27 12.14-16.39 19.29-36.67 19.29-58.61 0-16.51-4.07-32.1-11.28-45.78 11.46-8.38 25.57-13.37 40.86-13.37 38.14 0 69.01 30.87 69.01 69.01 0 38.15-30.87 69.02-69.01 69.02z"/>
</svg>