<svg version="1.2" xmlns="http://www.w3.org/2000/svg" viewBox="0 0 400 400" width="400" height="400">
	<style>
		.s0 { fill: #ffffff } 
	</style>
	<path id="DOWNLOADS" fill-rule="evenodd" class="s0" d="m224.31 214.2l55.67-55.75c9.5-9.49 24.92-9.49 34.41 0 9.5 9.5 9.5 24.92 0 34.41l-97.22 97.22c-9.5 9.5-24.92 9.5-34.41 0l-97.23-97.22c-9.49-9.49-9.49-24.91 0-34.41 9.5-9.49 24.92-9.49 34.41 0l55.75 55.75v-184.34c0-13.45 10.87-24.31 24.31-24.31 13.44 0 24.31 10.86 24.31 24.31zm-93.05 58.71l34.33 34.41c18.99 18.99 49.75 18.99 68.74 0l34.41-34.41h77.1c26.81 0 48.61 21.8 48.61 48.61v24.31c0 26.81-21.8 48.61-48.61 48.61h-291.68c-26.81 0-48.61-21.8-48.61-48.61v-24.31c0-26.81 21.8-48.61 48.61-48.61zm189.54 47.88c-3.42 3.41-5.34 8.05-5.34 12.89 0 4.83 1.92 9.47 5.34 12.89 3.42 3.42 8.05 5.34 12.89 5.34 4.83 0 9.47-1.92 12.89-5.34 3.42-3.42 5.34-8.06 5.34-12.89 0-4.84-1.92-9.48-5.34-12.89-3.42-3.42-8.06-5.34-12.89-5.34-4.84 0-9.47 1.92-12.89 5.34z"/>
</svg>