<svg version="1.2" xmlns="http://www.w3.org/2000/svg" viewBox="0 0 400 400" width="400" height="400">
	<style>
		.s0 { fill: #ffffff } 
	</style>
	<path id="PLUGINS" fill-rule="evenodd" class="s0" d="m126.52 4.38c-13.55 0-24.5 10.95-24.5 24.5v73.48h48.99v-73.48c0-13.55-10.94-24.5-24.49-24.5zm146.96 0c-13.55 0-24.49 10.95-24.49 24.5v73.48h48.98v-73.48c0-13.55-10.94-24.5-24.49-24.5zm-195.95 122.47c-13.55 0-24.49 10.95-24.49 24.5 0 13.54 10.94 24.49 24.49 24.49v24.49c0 59.25 42.1 108.69 97.98 120.02v51.44c0 13.55 10.94 24.49 24.49 24.49 13.55 0 24.49-10.94 24.49-24.49v-51.44c55.88-11.33 97.98-60.77 97.98-120.02v-24.49c13.55 0 24.49-10.95 24.49-24.49 0-13.55-10.94-24.5-24.49-24.5z"/>
</svg>