<svg version="1.2" xmlns="http://www.w3.org/2000/svg" viewBox="0 0 400 400" width="400" height="400">
	<style>
		.s0 { fill: #ffffff } 
	</style>
	<path id="SETTINGS" fill-rule="evenodd" class="s0" d="m383.8 131.93c2.45 6.65 0.38 14.07-4.9 18.82l-33.17 30.14c0.84 6.35 1.3 12.85 1.3 19.43 0 6.58-0.46 13.08-1.3 19.43l33.17 30.15c5.28 4.74 7.35 12.16 4.9 18.82-3.37 9.1-7.43 17.82-12.1 26.24l-3.6 6.19c-5.06 8.42-10.73 16.38-16.93 23.87-4.52 5.51-12.03 7.35-18.77 5.21l-42.66-13.55c-10.27 7.88-21.61 14.46-33.71 19.44l-9.57 43.68c-1.54 6.96-6.9 12.47-13.94 13.62-10.57 1.76-21.45 2.68-32.56 2.68-11.11 0-21.98-0.92-32.55-2.68-7.05-1.15-12.41-6.66-13.94-13.62l-9.58-43.68c-12.1-4.98-23.44-11.56-33.7-19.44l-42.59 13.62c-6.74 2.14-14.25 0.23-18.77-5.2-6.2-7.5-11.87-15.45-16.93-23.87l-3.6-6.2c-4.67-8.41-8.73-17.13-12.1-26.24-2.45-6.65-0.38-14.07 4.9-18.82l33.17-30.14c-0.84-6.43-1.3-12.93-1.3-19.51 0-6.58 0.46-13.08 1.3-19.43l-33.17-30.14c-5.28-4.75-7.35-12.17-4.9-18.82 3.37-9.11 7.43-17.83 12.1-26.24l3.6-6.2c5.06-8.42 10.73-16.37 16.93-23.87 4.52-5.51 12.03-7.34 18.77-5.2l42.66 13.54c10.27-7.88 21.6-14.46 33.71-19.43l9.57-43.69c1.53-6.96 6.9-12.47 13.94-13.61 10.57-1.84 21.45-2.76 32.56-2.76 11.11 0 21.98 0.92 32.55 2.68 7.05 1.15 12.41 6.66 13.94 13.62l9.58 43.68c12.1 4.97 23.44 11.55 33.7 19.43l42.67-13.54c6.74-2.14 14.25-0.23 18.76 5.2 6.21 7.5 11.88 15.46 16.93 23.87l3.6 6.2c4.68 8.41 8.74 17.14 12.03 26.32zm-183.76 129.59c16.25 0 31.84-6.44 43.33-17.92 11.49-11.48 17.95-27.05 17.95-43.28 0-16.23-6.46-31.8-17.95-43.28-11.49-11.47-27.08-17.92-43.33-17.92-16.25 0-31.84 6.45-43.33 17.92-11.5 11.48-17.95 27.05-17.95 43.28 0 16.23 6.45 31.8 17.95 43.28 11.49 11.48 27.08 17.92 43.33 17.92z"/>
</svg>