<svg version="1.2" xmlns="http://www.w3.org/2000/svg" viewBox="0 0 400 400" width="400" height="400">
	<style>
		.s0 { fill: #ffffff } 
	</style>
	<path id="MODS" fill-rule="evenodd" class="s0" d="m143.64 68.17c4.57 3.48 7.27 8.89 7.27 14.69v41.75l84.28 84.28c22.43-11.36 50.57-7.65 69.28 11.06l86.6 86.6c9.67 9.67 9.67 25.36 0 35.03l-49.48 49.48c-9.67 9.67-25.36 9.67-35.03 0l-86.6-86.6c-18.79-18.71-22.42-46.85-11.06-69.28l-84.28-84.28h-41.83c-5.72 0-11.21-2.71-14.69-7.27l-61.86-80.41c-5.64-7.43-4.95-17.86 1.63-24.44l30.93-30.92c6.64-6.58 17.08-7.27 24.43-1.55zm-10.98 125.65l47.71 47.7c-4.18 16.63-3.25 34.18 2.78 50.34l-91.09 91.09c-9.82 9.82-23.19 15.38-37.11 15.38-29 0-52.5-23.5-52.5-52.5 0-13.92 5.57-27.29 15.39-37.11zm201.5 20.87l-12.14-12.14c-21.81-21.8-52.58-29.22-80.42-22.19l-65.95-65.95v-0.62c0-61.47 49.87-111.34 111.34-111.34 8.12 0 16.01 0.85 23.66 2.47 8.66 1.86 10.9 12.45 4.64 18.71l-49.41 49.41c-2.32 2.32-3.63 5.49-3.63 8.74v44.46c0 6.8 5.56 12.37 12.37 12.37h44.38c3.25 0 6.42-1.31 8.74-3.63l49.41-49.41c6.26-6.27 16.85-4.02 18.71 4.64 1.62 7.57 2.47 15.46 2.47 23.58 0 44.61-26.29 83.12-64.17 100.9zm-282.98 134.91c3.48 3.48 8.2 5.43 13.12 5.43 4.92 0 9.64-1.95 13.12-5.43 3.48-3.48 5.44-8.2 5.44-13.12 0-4.93-1.96-9.65-5.44-13.13-3.48-3.48-8.2-5.43-13.12-5.43-4.92 0-9.64 1.95-13.12 5.43-3.48 3.48-5.43 8.2-5.43 13.13 0 4.92 1.95 9.64 5.43 13.12z"/>
</svg>